<svg width="143" height="40" viewBox="0 0 143 40" fill="none" xmlns="http://www.w3.org/2000/svg">
<path d="M20 0C8.9543 0 0 8.9543 0 20C0 31.0457 8.9543 40 20 40C31.0457 40 40 31.0457 40 20C40 8.9543 31.0457 0 20 0ZM20 9.2163L29.7656 16.8066V30.7837H23.0469V22.3462H16.9531V30.7837H10.2344V16.8066L20 9.2163Z" fill="black"/>
<path d="M52.7171 31C51.6065 31 50.5776 30.8693 49.6303 30.608C48.683 30.3467 47.8255 30.0119 47.0579 29.6036C46.2903 29.1952 45.6043 28.7624 45 28.3051L47.2049 24.7528C47.8909 25.3898 48.5523 25.8797 49.1893 26.2227C49.8263 26.5657 50.4878 26.8025 51.1737 26.9332C51.876 27.0638 52.6355 27.1292 53.4521 27.1292C54.1544 27.1292 54.7179 27.0393 55.1425 26.8597C55.5672 26.6637 55.7795 26.4187 55.7795 26.1247C55.7795 25.8797 55.5754 25.6919 55.167 25.5612C54.7587 25.4143 54.2361 25.2918 53.5991 25.1938C52.9621 25.0794 52.2925 24.9406 51.5902 24.7773C50.5939 24.516 49.663 24.2138 48.7973 23.8708C47.9317 23.5278 47.2294 23.0624 46.6904 22.4744C46.1678 21.8864 45.9065 21.1024 45.9065 20.1225C45.9065 19.3385 46.0943 18.6526 46.4699 18.0646C46.8456 17.4603 47.3437 16.9621 47.9644 16.5702C48.6013 16.1618 49.32 15.8597 50.1203 15.6637C50.9206 15.4677 51.7454 15.3697 52.5947 15.3697C54.0646 15.3697 55.3304 15.5494 56.392 15.9087C57.4699 16.2517 58.4989 16.709 59.4788 17.2806L57.2494 20.6615C56.7595 20.3185 56.196 20.0245 55.559 19.7795C54.9384 19.5182 54.3096 19.3222 53.6726 19.1915C53.052 19.0445 52.4722 18.971 51.9332 18.971C51.3452 18.971 50.8797 19.0609 50.5367 19.2405C50.2101 19.4202 50.0468 19.6733 50.0468 20C50.0468 20.196 50.2509 20.3838 50.6592 20.5635C51.0839 20.7268 51.8842 20.9473 53.0601 21.2249C53.7624 21.3883 54.5056 21.5598 55.2895 21.7394C56.0735 21.9027 56.8085 22.1396 57.4944 22.4499C58.1967 22.7439 58.7602 23.1767 59.1849 23.7483C59.6258 24.3036 59.8463 25.0468 59.8463 25.9777C59.8463 27.5457 59.2175 28.7706 57.9599 29.6526C56.7023 30.5509 54.9547 31 52.7171 31Z" fill="black"/>
<path d="M69.1341 30.9265C67.5662 30.9265 66.186 30.6162 64.9938 29.9955C63.8178 29.3912 62.895 28.5419 62.2254 27.4477C61.5721 26.3534 61.2454 25.0876 61.2454 23.6503C61.2454 22.7847 61.3924 21.8782 61.6864 20.931C61.9804 19.9673 62.4541 19.069 63.1074 18.2361C63.7607 17.4031 64.6181 16.7253 65.6797 16.2027C66.7577 15.68 68.0643 15.4187 69.5996 15.4187C70.7102 15.4187 71.6411 15.5412 72.3924 15.7862C73.1601 16.0312 73.7807 16.3497 74.2543 16.7416C74.7443 17.1336 75.1118 17.5501 75.3568 17.9911C75.6181 18.4321 75.7896 18.8567 75.8713 19.265C75.9693 19.657 76.0183 19.9837 76.0183 20.245C76.0183 21.8293 75.3486 23.0542 74.0094 23.9198C72.6864 24.7691 70.8082 25.1938 68.3746 25.1938C67.8193 25.1938 67.2885 25.1693 66.7822 25.1203C66.2922 25.0713 65.8349 25.0141 65.4102 24.9488C65.7206 25.7654 66.235 26.3697 66.9537 26.7617C67.6723 27.1373 68.4154 27.3252 69.1831 27.3252C70.2937 27.3252 71.2737 27.1292 72.1229 26.7372C72.9722 26.3289 73.7725 25.7082 74.5238 24.8753L76.7042 28.0111C76.1816 28.4358 75.5936 28.8768 74.9403 29.3341C74.3033 29.7914 73.5194 30.167 72.5884 30.461C71.6575 30.7713 70.506 30.9265 69.1341 30.9265ZM69.6731 19.0935C68.7094 19.0935 67.8601 19.3385 67.1252 19.8285C66.3902 20.3185 65.8512 20.9636 65.5082 21.7639C65.9166 21.8292 66.3167 21.8864 66.7087 21.9354C67.117 21.9681 67.5172 21.9844 67.9091 21.9844C68.2685 21.9844 68.6768 21.9517 69.1341 21.8864C69.6077 21.8211 70.065 21.7231 70.506 21.5924C70.9633 21.4618 71.339 21.2984 71.633 21.1025C71.927 20.8901 72.0739 20.6451 72.0739 20.3675C72.0739 20.2368 72.0086 20.0735 71.878 19.8775C71.7473 19.6815 71.5105 19.5019 71.1675 19.3385C70.8245 19.1752 70.3264 19.0935 69.6731 19.0935Z" fill="black"/>
<path d="M78.5043 30.8775C78.5697 29.5219 78.6187 28.1663 78.6513 26.8107C78.684 25.4551 78.7003 24.1158 78.7003 22.7929C78.684 21.5843 78.6595 20.392 78.6268 19.216C78.6105 18.0238 78.5697 16.8723 78.5043 15.7617L82.6201 15.6392C82.6365 16.2435 82.661 16.8641 82.6936 17.5011C83.2163 16.8478 83.8206 16.3252 84.5066 15.9332C85.2089 15.5249 86.0092 15.3207 86.9074 15.3207C87.2504 15.3207 87.6914 15.3697 88.2304 15.4677C88.7694 15.5657 89.3165 15.7535 89.8718 16.0312L89.4063 20.1715C88.998 19.9265 88.557 19.755 88.0834 19.657C87.6261 19.5427 87.2423 19.4855 86.9319 19.4855C85.8867 19.4855 84.9965 19.9592 84.2616 20.9065C83.5429 21.8374 83.053 23.1359 82.7916 24.8018C82.7916 25.9451 82.7753 27.0393 82.7426 28.0846C82.7263 29.1136 82.6855 30.0445 82.6201 30.8775H78.5043Z" fill="black"/>
<path d="M97.9069 30.8775C97.2372 30.8775 96.6574 30.6815 96.1674 30.2895C95.6775 29.8976 95.2528 29.4157 94.8935 28.8441C94.5342 28.2725 94.2157 27.7171 93.9381 27.1782C93.4317 26.1492 92.9499 25.0223 92.4926 23.7973C92.0353 22.5724 91.6352 21.2984 91.2922 19.9755C90.9492 18.6526 90.6879 17.346 90.5082 16.0557L94.9425 15.4187C95.0732 16.9376 95.2773 18.3667 95.555 19.706C95.8326 21.0453 96.1593 22.2376 96.5349 23.2829C96.9106 24.3281 97.2944 25.1774 97.6864 25.8307C97.768 25.9451 97.8415 26.0594 97.9069 26.1737C97.9885 26.288 98.0294 26.3452 98.0294 26.3452C98.062 26.3452 98.1927 26.1737 98.4213 25.8307C99.14 24.5731 99.8096 23.1032 100.43 21.4209C101.051 19.7387 101.59 17.7053 102.047 15.3207L106.359 16.1782C105.934 17.7134 105.542 19.0527 105.183 20.196C104.824 21.3229 104.473 22.3111 104.13 23.1604C103.787 24.0097 103.444 24.7773 103.101 25.4633C102.758 26.1329 102.398 26.7862 102.023 27.4232C101.778 27.8641 101.459 28.3541 101.067 28.8931C100.692 29.4321 100.242 29.8976 99.7198 30.2895C99.1971 30.6815 98.5928 30.8775 97.9069 30.8775Z" fill="black"/>
<path d="M108.267 13.1403C108.267 12.9933 108.259 12.8463 108.243 12.6993C108.243 12.536 108.243 12.3563 108.243 12.1604C108.243 11.6377 108.259 11.0824 108.292 10.4944C108.324 9.90646 108.357 9.40832 108.39 9L112.751 9.0735C112.702 9.6288 112.644 10.2576 112.579 10.9599C112.53 11.6622 112.497 12.389 112.481 13.1403H108.267ZM108.169 30.6815C108.12 29.6689 108.088 28.5909 108.071 27.4477C108.055 26.288 108.047 25.1284 108.047 23.9688C108.047 22.4499 108.063 20.9718 108.096 19.5345C108.128 18.0973 108.169 16.7906 108.218 15.6147L112.432 15.5902C112.367 16.3415 112.326 17.2725 112.31 18.3831C112.293 19.4774 112.285 20.6288 112.285 21.8374C112.285 23.0297 112.293 24.2056 112.31 25.3653C112.326 26.5249 112.342 27.5783 112.359 28.5256C112.391 29.4566 112.416 30.1752 112.432 30.6815H108.169Z" fill="black"/>
<path d="M122.003 30.951C120.631 30.951 119.365 30.6652 118.206 30.0935C117.046 29.5219 116.115 28.7053 115.413 27.6437C114.711 26.5657 114.359 25.2836 114.359 23.7973C114.359 22.1314 114.686 20.6696 115.339 19.412C115.993 18.1544 116.907 17.1826 118.083 16.4967C119.259 15.7944 120.631 15.4432 122.199 15.4432C123.702 15.4432 124.976 15.7535 126.021 16.3742C127.066 16.9785 127.997 17.9421 128.814 19.265L125.408 21.6169C124.951 20.882 124.486 20.3267 124.012 19.951C123.538 19.559 122.893 19.363 122.077 19.363C120.966 19.363 120.068 19.755 119.382 20.539C118.696 21.3066 118.353 22.3356 118.353 23.6258C118.353 24.3771 118.532 24.9896 118.892 25.4633C119.267 25.9369 119.725 26.288 120.264 26.5167C120.803 26.7454 121.309 26.8597 121.783 26.8597C122.273 26.8597 122.746 26.8025 123.204 26.6882C123.661 26.5575 124.094 26.2799 124.502 25.8552C124.91 25.4306 125.278 24.7854 125.604 23.9198L129.279 25.8797C128.789 26.778 128.242 27.611 127.638 28.3786C127.033 29.1463 126.282 29.7669 125.384 30.2405C124.502 30.7142 123.375 30.951 122.003 30.951Z" fill="black"/>
<path d="M130.804 30.8775C130.869 29.5219 130.918 28.1663 130.951 26.8107C130.983 25.4551 131 24.1158 131 22.7929C130.983 21.5843 130.959 20.392 130.926 19.216C130.91 18.0238 130.869 16.8723 130.804 15.7617L134.92 15.6392C134.936 16.2435 134.96 16.8641 134.993 17.5011C135.516 16.8478 136.12 16.3252 136.806 15.9332C137.508 15.5249 138.309 15.3207 139.207 15.3207C139.55 15.3207 139.991 15.3697 140.53 15.4677C141.069 15.5657 141.616 15.7535 142.171 16.0312L141.706 20.1715C141.297 19.9265 140.856 19.755 140.383 19.657C139.925 19.5427 139.542 19.4855 139.231 19.4855C138.186 19.4855 137.296 19.9592 136.561 20.9065C135.842 21.8374 135.352 23.1359 135.091 24.8018C135.091 25.9451 135.075 27.0393 135.042 28.0846C135.026 29.1136 134.985 30.0445 134.92 30.8775H130.804Z" fill="black"/>
</svg>
